<svg width="30" height="30" viewBox="0 0 30 30" fill="none" xmlns="http://www.w3.org/2000/svg">
<path d="M20.6865 10.5332C20.6865 11.2063 20.1409 11.752 19.4678 11.752C18.7947 11.752 18.249 11.2063 18.249 10.5332C18.249 9.86011 18.7947 9.31445 19.4678 9.31445C20.1409 9.31445 20.6865 9.86011 20.6865 10.5332Z" fill="#0C7288"/>
<path fill-rule="evenodd" clip-rule="evenodd" d="M14.999 19.0645C17.2427 19.0645 19.0615 17.2456 19.0615 15.002C19.0615 12.7583 17.2427 10.9395 14.999 10.9395C12.7554 10.9395 10.9365 12.7583 10.9365 15.002C10.9365 17.2456 12.7554 19.0645 14.999 19.0645ZM14.999 17.4395C16.3452 17.4395 17.4365 16.3482 17.4365 15.002C17.4365 13.6558 16.3452 12.5645 14.999 12.5645C13.6528 12.5645 12.5615 13.6558 12.5615 15.002C12.5615 16.3482 13.6528 17.4395 14.999 17.4395Z" fill="#0C7288"/>
<path fill-rule="evenodd" clip-rule="evenodd" d="M6.87402 14.677C6.87402 11.9467 6.87402 10.5816 7.40537 9.53875C7.87275 8.62146 8.61853 7.87568 9.53582 7.4083C10.5786 6.87695 11.9438 6.87695 14.674 6.87695H15.324C18.0543 6.87695 19.4194 6.87695 20.4622 7.4083C21.3795 7.87568 22.1253 8.62146 22.5927 9.53875C23.124 10.5816 23.124 11.9467 23.124 14.677V15.327C23.124 18.0572 23.124 19.4223 22.5927 20.4652C22.1253 21.3825 21.3795 22.1282 20.4622 22.5956C19.4194 23.127 18.0543 23.127 15.324 23.127H14.674C11.9438 23.127 10.5786 23.127 9.53582 22.5956C8.61853 22.1282 7.87275 21.3825 7.40537 20.4652C6.87402 19.4223 6.87402 18.0572 6.87402 15.327V14.677ZM14.674 8.50195H15.324C16.716 8.50195 17.6622 8.50322 18.3936 8.56298C19.106 8.62118 19.4703 8.72669 19.7245 8.85618C20.336 9.16777 20.8332 9.66496 21.1448 10.2765C21.2743 10.5306 21.3798 10.895 21.438 11.6074C21.4978 12.3388 21.499 13.285 21.499 14.677V15.327C21.499 16.7189 21.4978 17.6651 21.438 18.3965C21.3798 19.1089 21.2743 19.4733 21.1448 19.7274C20.8332 20.339 20.336 20.8361 19.7245 21.1477C19.4703 21.2772 19.106 21.3827 18.3936 21.4409C17.6622 21.5007 16.716 21.502 15.324 21.502H14.674C13.2821 21.502 12.3359 21.5007 11.6045 21.4409C10.892 21.3827 10.5277 21.2772 10.2736 21.1477C9.66203 20.8361 9.16484 20.339 8.85325 19.7274C8.72376 19.4733 8.61825 19.1089 8.56005 18.3965C8.50029 17.6651 8.49902 16.7189 8.49902 15.327V14.677C8.49902 13.285 8.50029 12.3388 8.56005 11.6074C8.61825 10.895 8.72376 10.5306 8.85325 10.2765C9.16484 9.66496 9.66203 9.16777 10.2736 8.85618C10.5277 8.72669 10.892 8.62118 11.6045 8.56298C12.3359 8.50322 13.2821 8.50195 14.674 8.50195Z" fill="#0C7288"/>
</svg>
