<svg width="30" height="30" viewBox="0 0 30 30" fill="none" xmlns="http://www.w3.org/2000/svg">
<path d="M10.7941 8.84106C10.7941 9.9258 9.91658 10.8052 8.83408 10.8052C7.75157 10.8052 6.87402 9.9258 6.87402 8.84106C6.87402 7.75631 7.75157 6.87695 8.83408 6.87695C9.91658 6.87695 10.7941 7.75631 10.7941 8.84106Z" fill="#0C7288"/>
<path d="M7.14206 12.2489H10.4926V23.127H7.14206V12.2489Z" fill="#0C7288"/>
<path d="M15.8869 12.2489H12.5364V23.127H15.8869C15.8869 23.127 15.8869 19.7024 15.8869 17.5612C15.8869 16.276 16.2965 14.9852 17.9307 14.9852C19.7776 14.9852 19.7665 16.667 19.7579 17.97C19.7466 19.6732 19.7735 21.4113 19.7735 23.127H23.124V17.3857C23.0957 13.7198 22.2041 12.0306 19.2709 12.0306C17.529 12.0306 16.4493 12.8779 15.8869 13.6445V12.2489Z" fill="#0C7288"/>
</svg>
