<svg width="17" height="14" viewBox="0 0 17 14" fill="none" xmlns="http://www.w3.org/2000/svg">
<path d="M5.10061 13.75C3.22316 13.75 1.47305 13.1875 0 12.2169C1.25067 12.3003 3.45781 12.1007 4.83065 10.7518C2.76545 10.6542 1.83408 9.02257 1.7126 8.3253C1.88807 8.39503 2.72495 8.4787 3.19739 8.28347C0.821727 7.66988 0.45728 5.52231 0.538268 4.86689C0.983704 5.18763 1.7396 5.29919 2.03655 5.2713C-0.177129 3.63971 0.619256 1.18534 1.0107 0.655426C2.59932 2.92257 4.98016 4.19588 7.92558 4.26671C7.87005 4.01581 7.84072 3.7546 7.84072 3.48631C7.84072 1.56087 9.35154 0 11.2152 0C12.189 0 13.0664 0.426103 13.6823 1.10767C14.333 0.950606 15.3123 0.582921 15.7911 0.264959C15.5498 1.15745 14.7985 1.90198 14.3441 2.17793C14.3404 2.1685 14.3478 2.18731 14.3441 2.17793C14.7432 2.11573 15.8233 1.9019 16.25 1.6037C16.039 2.1051 15.2425 2.93875 14.5889 3.40547C14.7105 8.93036 10.6069 13.75 5.10061 13.75Z" fill="#0C7288"/>
</svg>
