<svg width="20" height="20" viewBox="0 0 20 20" fill="none" xmlns="http://www.w3.org/2000/svg">
<path fill-rule="evenodd" clip-rule="evenodd" d="M0.0999999 19.331C0.0811567 19.3988 0.0805292 19.4704 0.0981808 19.5385C0.115832 19.6066 0.151138 19.6689 0.200536 19.719C0.249933 19.7691 0.311674 19.8053 0.379527 19.8239C0.447381 19.8425 0.518946 19.8429 0.587 19.825L5.194 18.621C6.65568 19.4128 8.29168 19.8276 9.954 19.828H9.958C15.444 19.828 19.916 15.382 19.916 9.91605C19.9194 8.61259 19.6635 7.32149 19.1632 6.11785C18.6629 4.91422 17.9283 3.8221 17.002 2.90505C16.0773 1.98046 14.9789 1.24782 13.77 0.749271C12.5612 0.25072 11.2656 -0.00390357 9.958 4.52349e-05C4.472 4.52349e-05 0 4.44604 0 9.91105C0 11.65 0.458 13.358 1.33 14.865L0.0999999 19.331ZM2.777 15.263C2.82987 15.0711 2.84402 14.8706 2.81861 14.6732C2.7932 14.4757 2.72874 14.2853 2.629 14.113C1.89014 12.8358 1.50075 11.3866 1.5 9.91105C1.5 5.28104 5.293 1.50005 9.958 1.50005C12.228 1.50005 14.346 2.37705 15.944 3.96805C16.7302 4.74575 17.3538 5.67223 17.7782 6.69344C18.2026 7.71465 18.4194 8.81015 18.416 9.91605C18.416 14.546 14.623 18.328 9.958 18.328H9.953C8.5407 18.3273 7.15083 17.9747 5.909 17.302C5.57429 17.1208 5.18321 17.0737 4.815 17.17L2.053 17.891L2.777 15.263Z" fill="#0C7288"/>
</svg>
